<?xml version="1.0" encoding="iso-8859-1"?>
<!-- Generator: Adobe Illustrator 18.0.0, SVG Export Plug-In . SVG Version: 6.00 Build 0)  -->
<!DOCTYPE svg PUBLIC "-//W3C//DTD SVG 1.1//EN" "http://www.w3.org/Graphics/SVG/1.1/DTD/svg11.dtd">
<svg version="1.1" id="Capa_1" xmlns="http://www.w3.org/2000/svg" xmlns:xlink="http://www.w3.org/1999/xlink" x="0px" y="0px"
	 viewBox="0 0 490 490" style="enable-background:new 0 0 490 490;" xml:space="preserve">
<g>
	<g>
		<path d="M337.5,167.796H152.499c-6.812,0-12.333,5.521-12.333,12.334c-0.001,6.811,5.521,12.334,12.333,12.334H337.5
			c6.811,0,12.334-5.522,12.334-12.334C349.832,173.317,344.311,167.796,337.5,167.796z"/>
		<path d="M337.5,216.064H152.499c-6.812,0-12.333,5.521-12.333,12.334c-0.001,6.811,5.521,12.334,12.333,12.334H337.5
			c6.811,0,12.334-5.521,12.334-12.334C349.832,221.586,344.311,216.064,337.5,216.064z"/>
		<path d="M337.5,264.332H152.499c-6.812,0-12.333,5.521-12.333,12.333c-0.001,6.812,5.521,12.335,12.333,12.335H337.5
			c6.811,0,12.334-5.522,12.334-12.334C349.832,269.853,344.311,264.332,337.5,264.332z"/>
		<path d="M152.499,144.195H337.5c6.811,0,12.334-5.521,12.334-12.333c-0.002-6.812-5.523-12.334-12.334-12.334H152.499
			c-6.812,0-12.333,5.522-12.333,12.333C140.165,138.673,145.688,144.195,152.499,144.195z"/>
	</g>
	<path d="M382.376,0H245.001H107.625C75.524,0,49.5,26.037,49.5,58.154v373.691C49.5,463.963,75.523,490,107.625,490h137.376h62.826
		l19.992-20l92.682-92.721l20-20.009V58.154C440.5,26.037,414.477,0,382.376,0z M420.5,357.271h-68.756
		c-24.254,0-43.917,19.483-43.917,43.517V470h-62.826H107.625C86.603,470,69.5,452.884,69.5,431.846V58.154
		c0-20.434,16.134-37.164,36.323-38.108v20.802c-6.199,3.498-10.392,10.135-10.392,17.76c0,11.262,9.13,20.393,20.392,20.393
		s20.392-9.131,20.392-20.393c0-7.625-4.193-14.263-10.392-17.761V20h66.118v20.848c-6.199,3.498-10.392,10.135-10.392,17.76
		c0,11.262,9.13,20.393,20.392,20.393c11.262,0,20.391-9.131,20.391-20.393c0-7.625-4.193-14.262-10.392-17.76V20h33.06h33.059
		v20.848c-6.199,3.498-10.392,10.135-10.392,17.76c0,11.262,9.129,20.393,20.391,20.393c11.262,0,20.392-9.131,20.392-20.393
		c0-7.625-4.193-14.262-10.392-17.76V20h66.118v20.848c-6.199,3.498-10.392,10.135-10.392,17.76c0,11.262,9.13,20.393,20.392,20.393
		c11.262,0,20.392-9.131,20.392-20.393c0-7.625-4.193-14.262-10.392-17.76V20.046C404.366,20.99,420.5,37.721,420.5,58.154V357.271z
		"/>
	<path d="M217.114,345.844c-8.562-6.98-21.16-5.697-28.139,2.865l-43.485,53.342l-6.99-7.954
		c-7.292-8.298-19.928-9.113-28.226-1.821c-8.297,7.292-9.112,19.929-1.82,28.227l22.586,25.7c3.801,4.325,9.276,6.798,15.022,6.798
		c0.124,0,0.248-0.001,0.371-0.004c5.881-0.108,11.415-2.8,15.131-7.359l58.414-71.654
		C226.958,365.422,225.675,352.823,217.114,345.844z"/>
</g>
<g>
</g>
<g>
</g>
<g>
</g>
<g>
</g>
<g>
</g>
<g>
</g>
<g>
</g>
<g>
</g>
<g>
</g>
<g>
</g>
<g>
</g>
<g>
</g>
<g>
</g>
<g>
</g>
<g>
</g>
</svg>
